# xmcd CD database file
#
# Track frame offsets:
#	150
#	12152
#	27602
#	41894
#	56589
#	69038
#	82427
#	95927
#	109987
#	123854
#	136637
#	151863
#	164463
#	178825
#	193001
#	204852
#	216557
#	230389
#	243789
#	257589
#	271233
#	294333
#
# Disc length: 4256 seconds
#
# Revision: 2
# Processed by: cddbd v1.5.2PL0 Copyright (c) Steve Scherf et al.
# Submitted via: CDex 1.51
#
DISCID=3d109e16
DTITLE=Charlie Parker - The Ultimate Jazz Archive 30 - Swing to BeBop Modern Jazz
DYEAR=2005
DGENRE=Jazz
TTITLE0=Au Privave
TTITLE1=K.C. Blues
TTITLE2=She Rote
TTITLE3=Swedish Schnapps
TTITLE4=Laird Bird
TTITLE5=The Song Is You
TTITLE6=Kim
TTITLE7=Why Do I Love You?
TTITLE8=My Little Suede Shoes
TTITLE9=Fiesta
TTITLE10=Lover Man
TTITLE11=Blues For Alice
TTITLE12=Begin The Beguine
TTITLE13=I Can't Get Started
TTITLE14=What Is This Thing Called Love?
TTITLE15=Almost Like Being In Love
TTITLE16=I Remember You
TTITLE17=Confirmation
TTITLE18=Chi Chi
TTITLE19=Now's The Time
TTITLE20=I Love Paris
TTITLE21=Love For Sale
EXTD=YEAR: 2005
EXTT0=
EXTT1=
EXTT2=
EXTT3=
EXTT4=
EXTT5=
EXTT6=
EXTT7=
EXTT8=
EXTT9=
EXTT10=
EXTT11=
EXTT12=
EXTT13=
EXTT14=
EXTT15=
EXTT16=
EXTT17=
EXTT18=
EXTT19=
EXTT20=
EXTT21=
PLAYORDER=
